<svg width="31" height="22" viewBox="0 0 31 22" fill="none" xmlns="http://www.w3.org/2000/svg">
<path d="M3.43333 3.78427V18.1843C3.13312 18.1843 2.83723 18.1741 2.54314 18.1052C1.64641 17.8954 0.91756 17.2855 0.53158 16.4913C0.25297 15.918 0.15295 15.2488 0.29737 14.5647L2.70373 3.16468C2.91151 2.18026 3.58822 1.39447 4.47028 1.021C3.82456 1.75951 3.43333 2.7262 3.43333 3.78427Z" fill="#CFD9E2"/>
<path fill-rule="evenodd" clip-rule="evenodd" d="M7.6333 0.78418C5.97643 0.78418 4.6333 2.12734 4.6333 3.78418V15.4842H30.1333C30.1333 11.5842 30.1333 7.68418 30.1333 3.78418C30.1333 2.12734 28.7902 0.78418 27.1333 0.78418H7.6333ZM16.3333 7.08418C16.0019 7.08418 15.7333 7.3528 15.7333 7.68418C15.7333 8.01556 16.0019 8.28418 16.3333 8.28418H18.1333C18.4647 8.28418 18.7333 8.01556 18.7333 7.68418C18.7333 7.3528 18.4647 7.08418 18.1333 7.08418H16.3333ZM14.2333 10.9842C13.9019 10.9842 13.6333 11.2528 13.6333 11.5842C13.6333 11.9156 13.9019 12.1842 14.2333 12.1842H20.2333C20.5647 12.1842 20.8333 11.9156 20.8333 11.5842C20.8333 11.2528 20.5647 10.9842 20.2333 10.9842H14.2333Z" fill="#CFD9E2"/>
<path d="M4.6333 16.6841V18.4841C4.6333 18.7976 4.68139 19.1 4.77064 19.3841C5.1529 20.6012 6.28999 21.4841 7.6333 21.4841H27.1333C28.7902 21.4841 30.1333 20.1409 30.1333 18.4841V16.6841H4.6333Z" fill="#CFD9E2"/>
</svg>
