<svg width="37" height="37" viewBox="0 0 37 37" fill="none" xmlns="http://www.w3.org/2000/svg">
<g clip-path="url(#clip0_54_365)">
<path d="M24.8219 12.5421L28.2876 15.2544V26.5829H36.1333V16.2821L28.0882 9.98584L24.8219 12.5421ZM31.1558 20.5159H33.265V23.6811H31.1558V20.5159Z" fill="#CCDAE4"/>
<path d="M1.98051 14.8364L0.133301 16.2821V26.5829H7.979V15.2544L11.4447 12.5421L8.17846 9.98584L4.08976 13.1857V10.252H1.98058V14.8364H1.98051ZM5.11074 23.6811H3.00157V20.5159H5.11074V23.6811Z" fill="#CCDAE4"/>
<path d="M16.4183 22.7573H19.8481V26.5827H16.4183V22.7573Z" fill="#CCDAE4"/>
<path d="M26.1784 16.282L18.1332 9.98584L10.0881 16.282V26.5829H14.3092V20.6482H21.9574V26.5829H26.1784V16.282Z" fill="#CCDAE4"/>
</g>
<defs>
<clipPath id="clip0_54_365">
<rect width="36" height="36" fill="white" transform="translate(0.133301 0.28418)"/>
</clipPath>
</defs>
</svg>
