<svg width="28" height="28" viewBox="0 0 28 28" fill="none" xmlns="http://www.w3.org/2000/svg">
<path d="M6.37593 5.37791C5.75249 3.92088 3.89263 4.10648 2.69338 4.63941C2.06765 4.9175 1.55096 5.33406 1.14026 5.8444L6.51642 12.9811L7.57484 12.5287L8.08399 9.55172C6.65188 8.41499 7.0126 6.86596 6.37593 5.37791Z" fill="#8C7873"/>
<path d="M1.14026 5.84446C0.813998 6.24981 0.554561 6.71421 0.361241 7.21597C-0.470447 9.37454 0.112248 11.9758 2.33519 12.9996C3.2646 13.4275 4.31903 13.533 5.33097 13.4879L6.51637 12.9812L6.5914 11.8562C3.86573 10.9308 7.42714 4.07751 1.14026 5.84446Z" fill="#FFB3B3"/>
<path d="M21.6241 5.37837C22.2475 3.92133 24.1073 4.10699 25.3066 4.63992C25.9324 4.91801 26.449 5.33457 26.8597 5.84491L21.4836 12.9816L20.4252 12.5292L19.916 9.55223C21.348 8.41544 20.9874 6.86642 21.6241 5.37837Z" fill="#8C7873"/>
<path d="M26.8597 5.84446C27.186 6.24981 27.4454 6.71421 27.6387 7.21597C28.4704 9.37454 27.8877 11.9758 25.6648 12.9996C24.7354 13.4275 23.6809 13.533 22.669 13.4879L21.4836 12.9812L21.4086 11.8562C24.1342 10.9308 20.5728 4.07751 26.8597 5.84446Z" fill="#FFB3B3"/>
<path d="M14 7.85791C6.22281 7.85791 3.45704 14.2498 6.0384 18.7979C7.07052 20.6164 8.55009 21.7864 9.95424 22.5357C12.4854 23.8865 15.5147 23.8865 18.0459 22.5357C19.45 21.7864 20.9296 20.6163 21.9617 18.7979C24.543 14.2499 21.7772 7.85791 14 7.85791Z" fill="#AA968C"/>
<path opacity="0.1" d="M11.6443 22.5358C10.2401 21.7864 8.76057 20.6164 7.72845 18.798C5.24301 14.4188 7.7156 8.33134 14.845 7.88504C14.57 7.86781 14.2888 7.85791 13.9999 7.85791C6.22268 7.85791 3.45692 14.2498 6.03828 18.798C7.0704 20.6164 8.54997 21.7864 9.95412 22.5358C11.4765 23.3482 13.179 23.6712 14.845 23.5064C13.7411 23.3972 12.6531 23.0742 11.6443 22.5358Z" fill="black"/>
<path d="M9.19508 18.1382C9.14203 18.1382 9.08811 18.1282 9.03594 18.1069C9.00072 18.0926 5.4743 16.6797 2.03785 17.079C1.80581 17.1059 1.5963 16.9399 1.5694 16.7081C1.54244 16.4763 1.70852 16.2666 1.94034 16.2396C5.59669 15.8146 9.20306 17.2624 9.35477 17.3242C9.57089 17.4123 9.67463 17.6588 9.58659 17.875C9.5197 18.0388 9.36171 18.1382 9.19508 18.1382Z" fill="#212121"/>
<path d="M2.30603 20.5439C2.17035 20.5439 2.03718 20.4787 1.95553 20.3579C1.82488 20.1645 1.87569 19.9019 2.06912 19.7712C3.23057 18.9865 4.83762 18.5761 6.84563 18.5514C8.31886 18.5333 9.44985 18.7364 9.49727 18.7451C9.72685 18.787 9.87893 19.007 9.83704 19.2366C9.79515 19.4661 9.57509 19.6183 9.34573 19.5764C9.30253 19.5686 4.999 18.8115 2.54222 20.4715C2.46971 20.5205 2.3874 20.5439 2.30603 20.5439Z" fill="#212121"/>
<path d="M3.29561 23.7522C3.19285 23.7522 3.08988 23.7149 3.00855 23.6396C2.83733 23.4811 2.82716 23.2137 2.9858 23.0425C5.75775 20.0506 10.1418 20.2302 10.3271 20.2392C10.5601 20.2507 10.7398 20.4489 10.7283 20.682C10.7168 20.9151 10.5194 21.0945 10.2855 21.0833C10.2228 21.0804 6.099 20.9257 3.60574 23.6168C3.52245 23.7067 3.40914 23.7522 3.29561 23.7522Z" fill="#212121"/>
<path d="M18.8049 18.1381C18.6383 18.1381 18.4803 18.0389 18.4134 17.875C18.3254 17.6589 18.4291 17.4123 18.6453 17.3242C18.797 17.2624 22.4031 15.8146 26.0597 16.2396C26.2915 16.2665 26.4576 16.4763 26.4306 16.7081C26.4037 16.9399 26.1941 17.106 25.9622 17.0791C22.5187 16.6789 18.9994 18.0925 18.9642 18.1069C18.912 18.128 18.858 18.1381 18.8049 18.1381Z" fill="#212121"/>
<path d="M25.6939 20.5439C25.6124 20.5439 25.5302 20.5204 25.4577 20.4715C23.001 18.8115 18.6974 19.5686 18.6542 19.5764C18.4246 19.6181 18.2046 19.4659 18.1629 19.2364C18.1211 19.0069 18.2732 18.7869 18.5026 18.7451C18.55 18.7364 19.6802 18.5333 21.1543 18.5514C23.1623 18.5761 24.7693 18.9865 25.9308 19.7713C26.1242 19.9019 26.175 20.1646 26.0444 20.3579C25.9627 20.4787 25.8295 20.5439 25.6939 20.5439Z" fill="#212121"/>
<path d="M24.7043 23.7522C24.5907 23.7522 24.4775 23.7067 24.3942 23.6168C21.8872 20.9108 17.756 21.0812 17.7144 21.0833C17.4815 21.0947 17.2831 20.9151 17.2716 20.682C17.2602 20.4489 17.4398 20.2507 17.6729 20.2392C17.8582 20.2302 22.2422 20.0505 25.0142 23.0425C25.1728 23.2137 25.1626 23.4811 24.9914 23.6396C24.9101 23.7149 24.807 23.7522 24.7043 23.7522Z" fill="#212121"/>
<path d="M10.7944 16.6562C11.2604 16.6562 11.6381 16.2784 11.6381 15.8125C11.6381 15.3465 11.2604 14.9688 10.7944 14.9688C10.3284 14.9688 9.95068 15.3465 9.95068 15.8125C9.95068 16.2784 10.3284 16.6562 10.7944 16.6562Z" fill="#212121"/>
<path d="M17.2055 16.6562C17.6715 16.6562 18.0493 16.2784 18.0493 15.8125C18.0493 15.3465 17.6715 14.9688 17.2055 14.9688C16.7396 14.9688 16.3618 15.3465 16.3618 15.8125C16.3618 16.2784 16.7396 16.6562 17.2055 16.6562Z" fill="#212121"/>
<path d="M15.0678 20.7215C15.0678 20.7215 14.8685 21.4972 14 21.4972C13.1316 21.4972 12.9323 20.7215 12.9323 20.7215L14 19.7979L15.0678 20.7215Z" fill="#E6E1D7"/>
<path d="M16.0262 20.5396C15.142 20.5396 14.4226 19.8202 14.4226 18.936V18.6335C14.4226 18.4001 14.2334 18.2109 14.0001 18.2109C13.7667 18.2109 13.5776 18.4001 13.5776 18.6335V18.936C13.5776 19.8203 12.8582 20.5396 11.9739 20.5396C11.7406 20.5396 11.5514 20.7287 11.5514 20.9621C11.5514 21.1955 11.7406 21.3846 11.9739 21.3846C12.8155 21.3846 13.5591 20.9578 14.0001 20.3094C14.441 20.9578 15.1847 21.3846 16.0262 21.3846C16.2595 21.3846 16.4487 21.1955 16.4487 20.9621C16.4488 20.7288 16.2595 20.5396 16.0262 20.5396Z" fill="black"/>
<path d="M15.4425 17.5848C15.4425 18.164 14.7966 18.6335 14 18.6335C13.2033 18.6335 12.5575 18.164 12.5575 17.5848C12.5574 17.0056 15.4425 17.0056 15.4425 17.5848Z" fill="#FFB3B3"/>
<path opacity="0.1" d="M13.2907 17.2007C12.8707 17.2658 12.5575 17.3937 12.5575 17.5845C12.5575 18.1637 13.2034 18.6332 14 18.6332C14.1375 18.6332 14.2704 18.6189 14.3964 18.5928C13.7723 18.4414 13.306 17.8779 13.2907 17.2007Z" fill="black"/>
</svg>
