<svg width="21" height="21" viewBox="0 0 21 21" fill="none" xmlns="http://www.w3.org/2000/svg">
<g clip-path="url(#clip0_54_237)">
<path d="M20.218 18.8879L14.5306 13.2004C15.6323 11.8396 16.2956 10.1105 16.2956 8.22715C16.2956 3.86219 12.7439 0.310547 8.37897 0.310547C4.01401 0.310547 0.462402 3.86215 0.462402 8.22711C0.462402 12.5921 4.01405 16.1437 8.379 16.1437C10.2623 16.1437 11.9915 15.4804 13.3523 14.3787L19.0397 20.0662C19.2022 20.2287 19.4155 20.3104 19.6289 20.3104C19.8423 20.3104 20.0556 20.2287 20.2181 20.0662C20.5439 19.7404 20.5439 19.2137 20.218 18.8879ZM8.379 14.4771C4.93236 14.4771 2.12907 11.6738 2.12907 8.22711C2.12907 4.78046 4.93236 1.97717 8.379 1.97717C11.8257 1.97717 14.6289 4.78046 14.6289 8.22711C14.6289 11.6738 11.8256 14.4771 8.379 14.4771Z" fill="#6C6C70"/>
</g>
<defs>
<clipPath id="clip0_54_237">
<rect width="20" height="20" fill="white" transform="translate(0.462402 0.310547)"/>
</clipPath>
</defs>
</svg>
