<svg width="28" height="29" viewBox="0 0 28 29" fill="none" xmlns="http://www.w3.org/2000/svg">
<path d="M14 2.98877C12.8463 2.98877 11.7185 3.33088 10.7592 3.97186C9.79988 4.61284 9.05221 5.52388 8.6107 6.58978C8.16919 7.65568 8.05367 8.82858 8.27875 9.96013C8.50383 11.0917 9.0594 12.1311 9.87521 12.9469C10.691 13.7627 11.7304 14.3183 12.8619 14.5433C13.9936 14.7685 15.1664 14.6529 16.2323 14.2114C17.2982 13.7699 18.2092 13.0222 18.8502 12.0629C19.4913 11.1036 19.8333 9.97583 19.8333 8.8221C19.8333 7.27501 19.2187 5.79128 18.1247 4.69732C17.0309 3.60335 15.5471 2.98877 14 2.98877ZM14 12.3221C13.3078 12.3221 12.631 12.1168 12.0555 11.7322C11.4799 11.3477 11.0313 10.801 10.7664 10.1615C10.5015 9.52195 10.4322 8.81822 10.5672 8.13929C10.7023 7.46036 11.0356 6.83672 11.5251 6.34723C12.0146 5.85774 12.6383 5.5244 13.3171 5.38935C13.9961 5.25431 14.6999 5.32362 15.3394 5.58852C15.9789 5.85343 16.5256 6.30203 16.9101 6.87761C17.2948 7.45318 17.5 8.12987 17.5 8.8221C17.5 9.75036 17.1312 10.6406 16.4748 11.297C15.8185 11.9534 14.9282 12.3221 14 12.3221ZM24.5 25.1554V23.9888C24.5 21.8229 23.6396 19.7456 22.108 18.2141C20.5765 16.6825 18.4992 15.8221 16.3333 15.8221H11.6667C9.50073 15.8221 7.42351 16.6825 5.89196 18.2141C4.36042 19.7456 3.5 21.8229 3.5 23.9888V25.1554H5.83333V23.9888C5.83333 22.4417 6.44791 20.9579 7.54188 19.864C8.63584 18.77 10.1196 18.1554 11.6667 18.1554H16.3333C17.8804 18.1554 19.3642 18.77 20.4581 19.864C21.5521 20.9579 22.1667 22.4417 22.1667 23.9888V25.1554H24.5Z" fill="black"/>
</svg>
